<svg xmlns="http://www.w3.org/2000/svg" width="24" height="24" viewBox="0 0 24 24" fill="none" stroke="currentColor" stroke-width="2" stroke-linecap="round" stroke-linejoin="round">
  <path d="M1.24 12C1.24 6.54 5.67 2.1 11.14 2.1C13.86 2.1 16.22 3.06 18.12 4.86L15.12 7.86C14.16 6.94 12.76 6.32 11.14 6.32C8 6.32 5.46 8.86 5.46 12C5.46 15.14 8 17.68 11.14 17.68C13.76 17.68 15.96 15.92 16.48 13.48H11.14V9.36H20.96C21.1 9.96 21.2 10.58 21.2 11.28C21.2 16.86 17 21.9 11.14 21.9C5.67 21.9 1.24 17.46 1.24 12Z"/>
</svg>